<?xml version="1.0" encoding="UTF-8"?>
<svg version="1.1" viewBox="0 0 1600 1185" width="1280" height="1280" xmlns="http://www.w3.org/2000/svg">
<path transform="translate(0)" d="m0 0h1600v1185h-1600z" fill="#011F7F"/>
<path transform="translate(788,99)" d="m0 0h32l3 1h20l8 1h15v2l13-1 11 1 9 1 10 2 10 1v2l7-1v2l6-1v2l5-1 4 2h5v2l5-1 9 3 16 2 4 2 4 4 1 7-1 2h2v5 2l1 9 6 11 6 4 9 3 7 1 4-2 5 3 8-2 2 1-1 5 2 20 1 14 1 2h5l5 12 3 8 1 3v30l1 3v20l-1 23-2 18-3 40-2 29-2 43v26l3 1v3l25-12 22-13 17-12 13-11 10-9 10-10 6-4-1 93 1 6 11-8h2v-2l10-8 12-11 10-11 5-7-1-11 3-6 4-3 6-1 7 3 2 3v10l-6 6-12 2-4 6-3 5-8 7-13 13-10 8-16 13-21 14-9 5-19 10-26 12-38 14-3 1 1 4v28l-1 5-1 19-1 5-5 3-3 1-1 86 4 1-4 3-1 10-1 21-1 29 4 4 11 7 6 5 4 2 4 5 2 1v2l4 2 14 14 7 9 9 14 6 12 5 15v4l3 1-1 1-1 31-4 16-10 23-4 2-3 6-2 1-4 7-6 5-7 8-4 2-2 4-11 9-4 1-1 3-5 1v2h-3l-1 4-8 4-6 1-1 3-22 11-25 10-29 9-27 6-22 4-31 3-67 1-10-2-36-5h-5l-5-2-29-7-33-11-21-9-23-12-12-8-11-8-11-9-19-19-4-6-7-10-8-15-4-9-2-10v-41l2-9 11-22 10-14 12-14 13-12 16-12h2v-2l11-6 5-4 5-2v-17l-1-27-1-7-23-7-34-10v-2l17 4 28 8 13 3-1-12v-7l-3-3-26-8-36-12-21-8-20-9-25-13-26-16-16-11-13-10-12-11-8-7-16-16-9-11-6-5-9 1-6-3-4-5-2-4v-7l4-6 5-4 3-1h8l9 8 1 3v7l-2 3 1 7 11 13 14 15 8 7 10 9 16 12 16 11 20 12 16 9 16 8 17 8 32 13 22 8 26 8h4l1-5-1-22-4-4-23-10-22-11-20-12-12-8-14-11-13-12-10-9-7-8v-42l-25-25-6-7-1-3v-76h3l3 5 18 18 9 7v-54l7 6 10 10 2 1v2l3 1v2l4 2 5 3 5 5 15 11 18 11 19 10 27 12 35 12 8 2 2-5 4-1 5 3v7l16 1 5 3 9 2 5-1 20-10v-3h-7l-14 4-10 4h-5l-1-1v-6l2-2 8-3 12-5 9-3-11 1-15 5-4 1v2l-3 2-4-1-1-1-1-14 6-5 12-6 12-3h18l12 5 18 10 1-51-32 11-30 11-15 5-9 2-10-1-16-7-13-8-10-8-10-9-9-9-5-7-13-7-7-7-10-16-2-4-5-2-10-1-1-5 1-1h17l5 2-1-3-6-4v-2l-13-1 1-4 9-7 7-2h14l10 3 4-1-2-2-1-9 1-7-1-6-1-26v-19l1-5v-14l3-15h2l1-2 7-4 1-5 2-28 2-7h6l-1-2 3-2 1-4 3-1 3 2 3-5v-5l4-1 1 2-1 4 5-1-1-4 1-9v-18l1-14 7-4 19-5 32-8 28-5 37-4h12l1-3z" fill="#104CA3"/>
<path transform="translate(631,690)" d="m0 0 9 1 26 6 40 8 25 3 23 2 10 2 3 2v3l4 2 22 5h13l16-2 7 6 3 6 3 1h22l35-1 1-2 4-1 24-1 48-7 18-3 13-3h5l-3 2-31 7-41 7-14 2-2 1 18 5 27 8 20 8 27 13 22 13 10 8 4 2 4 5 2 1v2l4 2 14 14 7 9 9 14 6 12 5 15v4l3 1-1 1-1 31-4 16-10 23-4 2-3 6-2 1-4 7-6 5-7 8-4 2-2 4-11 9-4 1-1 3-5 1v2h-3l-1 4-8 4-6 1-1 3-22 11-25 10-29 9-27 6-22 4-31 3-67 1-10-2-36-5h-5l-5-2-29-7-33-11-21-9-23-12-12-8-11-8-11-9-19-19-4-6-7-10-8-15-4-9-2-10v-41l2-9 11-22 10-14 12-14 13-12 16-12h2v-2l11-6 5-4 17-8 4-1v-2l26-10 28-9 19-5 2-1-10-2-29-4-21-4v5l-4 3-6-1v-9l-11-2-8-3v-3l9 2 5 1 15 1 18 4 26 2 10-5 6-2 13-1 2-2-17-3-52-10-26-6-10-2-2-2z" fill="#319EF3"/>
<path transform="translate(505,399)" d="m0 0 7 6 10 10 2 1v2l3 1v2l4 2 5 3 5 5 15 11 18 11 19 10 27 12 35 12 8 2 2-5 4-1 5 3v7l16 1 5 3 9 2 7 4 8-1 13-7 5 1 14 3h7l2 13 1 18v12l-3 31-2 17-1 2-1 1-4 30v30h2v2l20-2 6 1h16l12 1 4 2 4 12v3h2v2l23-1 11-1 6-1 7-1 9-1 4-2h6l2 1v-2l4-1-3-32-2-16v-10l5 1 4 7 3 1 2-2h8l3 3 9-2v2l4 1 2 1 1-3 2 3 2-1-1-3 2-8 1-27-1-4 1-2 4-2 1-2h2v2l7-1h3 8l6-2 25-4 16-4 26-7 30-11 22-9 29-14 19-11 15-10 7-4 9-7h2v-2l10-8 12-11 10-11 5-7-1-11 3-6 4-3 6-1 7 3 2 3v10l-6 6-12 2-4 6-3 5-8 7-13 13-10 8-16 13-21 14-9 5-19 10-26 12-38 14-3 1 1 4v28l-1 5-1 19-1 5-5 3-3 1-1 86 4 1-4 3-1 10-1 21-1 31-15-8-32-15-27-9-27-7-3-3 17-3 47-8 25-6-13 2-10 2-36 6-22 3-28 1-1 3-35 1h-22l-5-3-3-6-5-4-16 2h-13l-22-5-4-3v-3l-13-3-40-4-24-4-24-5-26-6-9-2 2 4 36 8 52 10 17 3 2 2-4 2-18 2-6 4-5 2-26-2-18-4-15-1-14-4v3l16 4 3 1v9h6l4-2v-5l11 1 30 5 17 2 3 2-6 3-16 4-36 12-15 6h-3v2l-15 7-2-44-1-7-23-7-34-10v-2l17 4 28 8 13 3-1-12v-7l-3-3-26-8-36-12-21-8-20-9-25-13-26-16-16-11-13-10-12-11-8-7-16-16-9-11-6-5-9 1-6-3-4-5-2-4v-7l4-6 5-4 3-1h8l9 8 1 3v7l-2 3 1 7 11 13 14 15 8 7 10 9 16 12 16 11 20 12 16 9 16 8 17 8 32 13 22 8 26 8h4l1-5-1-22-4-4-23-10-22-11-20-12-12-8-14-11-13-12-10-9-7-8v-42l-25-25-6-7-1-3v-76h3l3 5 18 18 9 7z" fill="#2781D7"/>
<path transform="translate(448,267)" d="m0 0 2 2-18 13-10 8-14 12-5 5-3 1-1 3-8 7-7 7-7 10h-2l-1 4-7 9-4 4-1 3h-2l-2 4-3 7-3 8-3 7-4 9-2 4-1 7-2 4 1 4-3 9-2 15v6l-1 2 1 13 2 1 4 9v2l3 1v6h-2v-4l-2 3-2-3-1 6-5-1 3 4-1 8-1 4 4 5 2 10 1 6-1 2h2l6 18 3 5 3 1 1-6 6-10 2-3h2l-2-4h-5l-1-4 7-2v3l7 1 10-3 11 1 11 3 5 3 5 5 4 6-2-5-6-10 4-2v-2h2v2l5 2 4 6 1-5-1-9-1-3 1-3-2-4h2l2 2 2 1 1 6h2v3l6 2-1 3-5 2-2 10 1 1 1 10 2 4 5 1v-5l7-2 3 3-7 9h-2l-1 8 5-2 11-11 8-7 3-1v-2l11-7 4-6 4-1 6 4 15 15v42l13 14 8 7 10 9 15 11 19 12 18 10 27 13 12 5 3 4 1 25-2 3-7-1-32-10-33-13-25-11-17-9-14-7-17-10-11-7-17-12-14-11-13-12-10-9-12-13-8-11 1-7 1-1v-7l-3-5-6-5h-8l-6 3-4 5-1 2v7l5 8 6 3 9-1 8 7 9 11 20 20 8 7 12 10 17 12 19 12 24 14 22 11 25 10 25 9 45 14 4 4v19l-8-1-23-6-25-7-2-1v2l10 2 28 8 19 6 1 1 1 7 1 27v17l-6 3h-2l-1 3-10 6h-3v2l-14 10-12 11-8 7-11 14-10 15-5 11-3 6-2 9-1 35-2-2-1-8v-9l2-11-7-2-16-8-18-10-16-10-19-14-14-12-27-27-8-11-6-8-10-16-9-19-6-18-4-20-1-23 2-21 6-23 7-19 2-5-10-10-4-6-11-12-9-11-8-11-8-15v-2h-2l-5-12-3-9h-2l-8-24-4-20-1-6-2-2 1-4v-12h-1v-12l2-4 2 1v-8l4-18 7-21 9-19 12-19 11-14 12-13 4-5 7-6h2l1-3 6-5 4-5 8-7 14-11 14-10z" fill="#0F4BA2"/>
<path transform="translate(836,781)" d="m0 0 6 4h13l6 10 6 14 6 25 7 49 3 28v6l-9 11-12 16-4 10v7l3 5 5 3 4 1h14l15-6 6-4 8-8 8-16 9-19v-14l-1-2-2-56-3-30-2-11v-5l6 2 29 15 11 7 13 10 11 11 9 13 6 13 3 12v23l-6 16-7 12-10 11-12 12-10 7-20 11-24 10-19 6-22 5-26 3h-52l-27-3-25-5-18-5-22-9-19-10-14-10-10-9-11-11-8-13-6-15-2-8v-16l4-16 5-10 9-13 13-13 15-11 21-12 21-9 19-6 32-7h4l2 10 1 12v26l-1 8-15 10-10 8-9 9-5 8-1 3v12l8 5h11l16-6 14-9 17-12 11-5 13-4 1-1v-42l-1-35z" fill="#FCFDFD"/>
<path transform="translate(576,334)" d="m0 0h14l10 3 8 7 6 10 7 16 3 12 16 5 39 13 20-8 16-7 17-8 22-12 13-5 11-2h15l7 1 1-8h4l14 7 13 3 8-1 10-6 6-9 4-7 2 1 3 6 5 1-1 7v16l4 13 2 5 27 18 11 9 8 10 3 10-1 11-3 10-9 19-15 25-10 18-11 20-1 8 3 27 3 22v6l-6 5-14 7-12 4-16 3h-21l-22-4-16-6-10-6-6-7-2-6 2-17 3-31v-12l-2-31-7 1-14-3-5-1-16 8-7-1-2-3 8-5 14-7v-3h-7l-14 4-10 4h-5l-1-1v-6l2-2 8-3 12-5 9-3-11 1-15 5-4 1v2l-3 2-4-1-1-1-1-14 6-5 12-6 12-3h18l12 5 18 10 1-51-32 11-30 11-15 5-9 2-10-1-16-7-13-8-10-8-10-9-9-9-5-7-13-7-7-7-10-16-2-4-5-2-10-1-1-5 1-1h17l5 2-1-3-6-4v-2l-13-1 1-4 9-7z" fill="#D2329B"/>
<path transform="translate(837,757)" d="m0 0h3l4 5 2 7h2l7 14v2l-5 1h-8l-5-4-1 2 1 35v42l-4 3-16 5-11 6-16 12-12 7-14 5h-11l-8-5-1-1v-12l4-8 9-10 10-9 15-10 2-1 1-8v-26l-2-22-39 9-21 7-18 8-19 11-12 9-10 9-9 10-9 15-4 14-1 5v16l4 14 8 16 7 9 14 14 14 10 18 10 18 8 18 6 26 6 22 3 12 1h52l26-3 25-6 24-8 24-11 15-9 10-8 7-6 7-8 9-13 6-14 2-6v-23l-4-15-8-15-9-11-9-9-11-8-13-8-33-17-1 3-10-20-7-12v-4l9 1 27 8 10 4 9 2 19 9 18 10 10 7 8 6v2l4 2 6 7-1 3-6-5v-2h-2l2 10 3 3 1 3 5 5 4 8 4 4 1 5 2 1 5 16 1 6v13l-2 17-3 10h-2l-1 5-4 9h-2v3h-2l-1 5-14 15-10 9-5 4-9 5-10 6h-3v2l-14 7-17 6-24 8-24 6-27 4-11 1-26 1h-24l-25-2-21-3-29-6-29-9-5-3-9-2-8-4-3-3-7-3-8-5-1-2-7-3-14-12-11-11-6-8v-4h-2v-3h-2l-5-10-2-5-4-9-1-6v-24l4-15 8-16 9-13 10-11 8-7 13-10-5 1-8 5-4 2-4 3-3-1v-5l10-8 13-8 11-6 10-4 24-10 26-8 31-7 6-1h11l2 5 3 15v5l6-3 9 1 13 2h8l11-4 2-4v-17z" fill="#3FF2FE"/>
<path transform="translate(1264,334)" d="m0 0h2v2l4 2 5 8 7 10 10 18 8 18 6 17 4 16 2 15v31l-5 25-8 24-11 23-12 19-12 16-12 14-10 10-5 4 1 6-2-1v-2l-6 4-12 10-13 10-17 12-27 16-35 18-28 12-27 10-37 11-12 3 6 2-1 5 3-1 4 15 4 1v2h2v7l4 4v4l-5 1 1 2 7 3 1 4h-4l1 4 3 1 1 7-4 1 1 5 1 4-5-1-5-7-1-5h-4l5 8 2 6 3 1-1 2-5-3v-2l-6-2-5-3-6-1-3-5 1-33 1-20 2-7 3-2-3-1-1-9 1-77 8-4 1-5 1-21 1-9v-24-3l31-11 21-9 25-12 9-5 14-8 14-10 2 1 2 5 10 9 6 4v2l6 3v2l6 3v2l5 2 10 8v2l4 2 5 6-1 2 5 1 7 9 8 10 9 15 6 9 4-2 8-7 4-5h2l2-4 8-9 11-15 11-18 13-27 6-20 4-18 1-10v-19l-2-17-3-15-5-17-9-21-10-18-11-17-5-7z" fill="#104CA3"/>
<path transform="translate(400,612)" d="m0 0 4 1 4-1 4 4 4 2 1 10-2 1-10-3-2 1v7l1 7 12-1v2l3-1 4 2-2 4 4 4 1 3 5 2 6 3 5-1 7 3 3 3 1-1h9l1-3 7 1 9 5 2 4-1 2h-2v2h-2v7h3l2 5-2 5 4 4-5-1-4-2v5l-5 3-2 6 1 2 3 1 1-2 2 2-3 3-4 2-2 4 1 5-6-1 2 5 2 2h-3l1 3h-4l-1 5 1 3 8 2v-7h-2l3-13 3-1v-4-2h9l2 1 1 9 3-1v-4l4 1 4 3 5-2 7 1-1 2-2 2-1 3h-2l-2-4-9 4h-4-2l-1 4 5 2 5-1 3 3-6 2h-3l-2 4 4 4 3 2 6 9-5 2v-4l-6 1-1-8-2-1v5l-7 1-3-1 2 5 2 1 8 2 5 1h4l9 1 1-2 8-3 8-4 3-1 1-3 5-1 2-4 2-10 5-5 4-3h2l2-6 4-8 5-3 4-6-1-4 1-3-3 3v3l-1 1h-5l-1-3-2-1-1-3 9-3v2h5l9 3 29 8 31 9 3 2 1 7 1 27v17l-6 3h-2l-1 3-10 6h-3v2l-14 10-12 11-8 7-11 14-10 15-5 11-3 6-3 13-10-4v-2l-3-1 1-3-3-3v-5h-7l2 7-6-2-6-4v-3l-7-1v-2l-6-2-5-4-9-5-10-7-13-11-8-7v-2h-2l-7-8-11-11-7-6-5-8-4-4-3-6-4-5-6-12-6-10-6-15-4-14-3-17v-34l2-12 4-15 2-6 2-1v-7z" fill="#011F7F"/>
<path transform="translate(1016,785)" d="m0 0 5 1v3l5 1v2l6 2 10 7 20 20 5 6v2h2l1 5 3 1 9 21 4 13v5l-1 2 3 1v19l-3 17-6 16-5 8-2 7-3 1-3 6-2 1-3 5-11 12-8 7-13 10-6 4-4 1-3 3h-3v2l-27 14-7 2-10 4-9 4-25 8-26 6-20 3-11 2-16 2-17 1h-54l-24-2-28-4-25-5-25-7-20-7-25-11-16-8-8-5-5-3-6-3-10-9-8-7-17-17-10-15-2-7h-3l-4-13-4-14-1-9v-11l1-2v-7l5 1 13 6 16 7 8 3 2 2 2 14 5 15 7 13 9 12 11 12 11 10 16 11 17 10 19 9 19 7 30 8 25 5 24 3 14 1h41l24-2 27-4 30-7 30-10 20-9 24-14 13-10 12-11 7-7 5-6h2l1-4h2v-3h2v-3h2l1-5 4-8 4-14 1-5 1-7v-8h3v-2h-3l-2-16h-2l-2-6v-4h-2l-4-8-3-9h-2v-3h-2l-1-3-3-2v-3l-4-2-3-5-11-9-1-1v-23z" fill="#012080"/>
<path transform="translate(1024,478)" d="m0 0h3l3 14 3 19 2 2v35l-1 3 3 1-24 7-25 6-13 3-16 2-4 2h-8-3l-8 1 1-3-2 2-1 2h-4v5l1 2-1 27-2 8 1 3h-4l-1-2-1 2-6-2v-2l-9 3-1-3h-10l-3 2-4-3-3-6-4-1 4 35 1 16v7l-4 1v2h-8l-4 2-14 1-4 2h-8l-23 2-7-1v-2h-2l-4-13v-2l-16-2h-16l-8-1-8 1h-10v-2h-2l-1-4v-26l4-30 2-2 3 5 6 7 16 8 14 4 17 3h21l19-4 16-6 10-6 2-2-1-20 3 1v-2l12-2 7-2 4-3 9-1 1-3 11-5 3-6 1-9v-36l1-8 40-10 17-4 12-3 16-6z" fill="#1D72C6"/>
<path transform="translate(885,737)" d="m0 0h8l2 6 17 4 13 2 16 4 23 7 20 8 18 8 12 7 4 2h-2l-1 30-8-6-5-4-15-9-23-12-8-3-8-2-24-8-20-5 3 7 16 31 3 19 2 22 2 56 1 2v14l-11 23-6 12-11 11-16 7-3 1h-14l-8-3-4-4-1-3v-7l4-10 20-26 1-1-1-17-6-47-4-24-6-23-8-17-2-2-3-7-4-9v-2h-2l-5-12-4-4-2-6v-9z" fill="#2781D7"/>
<path transform="translate(472,423)" d="m0 0h3l3 5 18 18 22 18 24 16 24 13 16 8 19 8 42 15 16 7v64l-1 14-9-2-40-14-24-10-23-11-27-16-15-10-16-12-25-25-6-7-1-3z" fill="#319EF3"/>
<path transform="translate(702,753)" d="m0 0 5 1 1 4-4 1v2h-3v2l-3 2-1 3h2v2l8-1-1 5-4-1v2h-5l-1 4-14 6-13 8-16 9-15 11-1 5 5-1 5-4 12-6 3 1-11 9-8 7-6 5-9 11-9 14-5 11-4 15v24l3 12 3 4 4 10 1 4h2v3h2l3 7 12 13 12 11 7 5 5 2 3 3 8 5 7 3v2l6 2 4 2 7 1 8 4 30 9 30 6 24 3 17 1h24l26-1 26-3 25-5 27-8 21-8 10-4 6-3h2v-2l12-6 7-5 5-3 11-9 10-10 6-8 1-3h2v-3h2l1-5 4-9h2l3-15 1-12v-13l-4-16-1-6-3-1-2-8-3-1-4-8-5-5-3-5-2-3v-8h2l5 6v-3l-3-4 4 2 6 5 3 5 2 1 1 3 3 2v3h2v3h2l3 5 3 7 1 5h2l2 10h2l2 11v5h3v2h-3l1 2v10l-1 7-3 8-3 10-5 10h-2v3h-2v3h-2l-1 4-5 4-7 8-10 10-13 10-14 9-14 8-25 11-25 8-30 7-27 4-24 2h-41l-23-2-26-4-26-6-27-8-21-9-19-10-12-8-12-9-12-11-11-12-10-15-7-16-3-11-1-10-5-3-4-1-16-7-18-8 1 8-1 1v20l-2-1v-22l1-7 3-8 7-18 9-17 8-10 11-12 11-10 15-11 17-10h2v-2l10-4 19-8 13-5 15-4z" fill="#319EF2"/>
<path transform="translate(714,454)" d="m0 0h18l12 5 17 10 8 4 4 5 1 3v8l-3 6-3 4 9 8 19 10 27 11 11 4 7 4 12 3h15l4-6 4-5 3-6 4-3-1 5-7 13-1 8 3 27 3 22v6l-6 5-14 7-12 4-16 3h-21l-22-4-16-6-10-6-6-7-2-6 2-17 3-31v-12l-2-31-7 1-14-3-5-1-16 8-7-1-2-3 8-5 14-7v-3h-7l-14 4-10 4h-5l-1-1v-6l2-2 8-3 12-5 9-3-11 1-15 5-4 1v2l-3 2-4-1-1-1-1-14 6-5 12-6z" fill="#C247B4"/>
<path transform="translate(1060,191)" d="m0 0 9 3 16 8 9 5 16 9 17 11 18 13 14 12 16 16 7 10 1 3v74l-4-2-25-25-2-1v-2l-5-2-12-10-2-1v-2l-5-2-18-12-22-13-14-7-13-5-2-3v-22z" fill="#104CA3"/>
<path transform="translate(911,818)" d="m0 0h5l6 8 2 2 1 9 2-4 1 12 2 56 1 2v14l-11 23-6 12-11 11-16 7-3 1h-14l-8-3-4-4-1-3v-7l4-10 20-26 1-1-1-17-6-47-3-22 4-2 4-4h7v-1l19-4z" fill="#40F4FF"/>
<path transform="translate(580,151)" d="m0 0 3 3-1 75-22 12-25 14-16 11-13 11-11 9-3 3h-2v-47l-5 1-1-10 1-1-1-10 2-5h2l-2-5h2v-2h2v3l3-6 10-9 16-12 15-10 13-8 24-13z" fill="#0F4BA2"/>
<path transform="translate(754,591)" d="m0 0 3 2 3 6 7 6 13 6 14 4 17 3h21l19-4 16-6 10-6 4-1 4 22 3 33v9l-4 1v2h-8l-4 2-14 1-4 2h-8l-23 2-7-1v-2h-2l-4-13v-2l-16-2h-16l-8-1-8 1h-10v-2h-2l-1-4v-26l4-30z" fill="#0F4BA2"/>
<path transform="translate(597,400)" d="m0 0 5 3 7 1 16 16 17 13 17 9 13 4 10-1 16-5 59-21 6-1v47l-1 4-6-2-16-9-8-3h-18l-14 4-13 7-2 2 1 14 4 1 3-1v-2l12-5 12-3h8l-2 2-20 7-5 3-5 2v6l8-1 16-6 5-1h7l1 4-19 10-3 2-6-1-10-2-2-2-16-2-1-7-6-2h-2l-2 5-11-2-32-11-20-9-21-10-18-11 4-1 3 2v2l9 3 3 2v2l6 1v2l8 2 9-1 3-4h5l-2-36v-12l-4 1v3l-4 1-4-4 2-1-3-5z" fill="#104CA3"/>
<path transform="translate(837,757)" d="m0 0h3l4 5 2 7h2l7 14v2l-5 1h-8l-5-4-1 2 1 35v42l-4 3-16 5-11 6-16 12-12 7-14 5h-11l-8-5-1-1v-12l4-8 9-10 10-9 15-10 2-1 1-8v-26l-3-26-1-4v-7h1l2 9v5l6-3 9 1 13 2h8l11-4 2-4v-17z" fill="#38CEFC"/>
<path transform="translate(384,527)" d="m0 0h8l9 8 1 3v7l-2 3 1 7 11 13 14 15 8 7 10 9 16 12 16 11 20 12 16 9 16 8 17 8 32 13 22 8 26 8 6 1 2 5 36 8 52 10 17 3 2 2-4 2-18 2-6 4-5 2-26-2-18-4-15-1-14-4v3l16 4 3 1v9h6l4-2v-5l11 1 30 5 17 2 3 2-6 3-16 4-36 12-15 6h-3v2l-15 7-2-44-1-7-23-7-34-10v-2l17 4 28 8 13 3-1-12v-7l-3-3-26-8-36-12-21-8-20-9-25-13-26-16-16-11-13-10-12-11-8-7-16-16-9-11-6-5-9 1-6-3-4-5-2-4v-7l4-6 5-4z" fill="#2781D7"/>
<path transform="translate(633,778)" d="m0 0h2v38l-8 7-8 8-10 14-9 16-5 17-2 13-10-3-26-11-5-3 2-10 6-15 9-17 8-10 11-12 11-10 15-11 17-10z" fill="#01207F"/>
<path transform="translate(834,261)" d="m0 0h13l11 4 8 6 7 8 4 8 2 7v14l-1 10h-5l-2 5h-4l-1-4-3-1 1 5-6 1v3h2l2 5-7-1-2-2-6 3-6 1h-9l-13-3-16-8-14-9-7-8v-4l9-3 4-2 4 1 1-5 4-1 4 4 5 4 14 7 18 6 10 2-20-6-8-4v-3l-2-1v-2l-6-2-5-4-8-3v-2l9-7 1-2 8-2v2l3 1v2l8-3h10l1 1h16l3 3-2-5-8-7-8-4-13-4z" fill="#D2329B"/>
<path transform="translate(763,731)" d="m0 0h8l1 1v5l-1 1-30 4-24 5-29 8-11 4h-2v2l-15 6-22 9-5 1v2l-16 9-14 10-15 13-7 7-11 14-11 21-7 21-1 1-1 7v22l2 1 4 14 3 8v5h3l6 12 8 11v2l4 2 14 14 3 2v2l4 2 8 7 6 3 5 3 17 10 25 11 21 8 19 6 5 3 20 5 15 3 11 3v1l-19 1-5-2-29-7-33-11-21-9-23-12-12-8-11-8-11-9-19-19-4-6-7-10-8-15-4-9-2-10v-41l2-9 11-22 10-14 12-14 13-12 16-12h2v-2l11-6 5-4 17-8 4-1v-2l26-10 28-9 11-3 13-2 12-3z" fill="#36C5F9"/>
<path transform="translate(903,758)" d="m0 0h5v2l7 1 11 6 10 5 15 5 2 3-5-1-24-8-20-5 3 7 16 31 3 19v20h-1l-2-15-5-5-2-4-7 1-21 5v1h-10l-2 4-3 2-3-7-5-19-8-17-2-2-3-7-4-9v-2h-2l-2-4 1-3 2 5 15-1 22-2 6-3h7z" fill="#329FF4"/>
<path transform="translate(448,267)" d="m0 0 2 2-18 13-10 8-14 12-5 5-3 1-1 3-8 7-7 7-7 10h-2l-1 4-7 9-4 4-1 3h-2l-2 4-3 7-3 8-3 7-4 9-2 4-1 7-2 4 1 4-3 9-2 15v6l-1 2 1 13 2 1 4 9v2l3 1v6h-2v-4l-2 3-2-3-1 6-5-1 3 4-1 8-1 4 4 5 2 10 1 6-1 2h2l6 18 8 16 13 19 10 13 12 13 7 8 6 4 6 7 11 9 15 11 4 5-4-2-11-8-10-8-6-3-2-2-5 1h-2l-2 7v5l-1 3h-3l-1 8-3 11-2 15v31l4 20 5 16 5 11 10 18 3 6 3 3 3 6v2l4 2 6 9 12 11 7 7v2l3 1v2h2l6 7 11 9 11 8 9 6 6 2 3 4 5 2v2l7 1 1 3 10 5-1-6 3-1 4 1 2 6 2 3-1 2 2 1v2l6 2 4 2v31l-2-2-1-8v-9l2-11-7-2-16-8-18-10-16-10-19-14-14-12-27-27-8-11-6-8-10-16-9-19-6-18-4-20-1-23 2-21 6-23 7-19 2-5-10-10-4-6-11-12-9-11-8-11-8-15v-2h-2l-5-12-3-9h-2l-8-24-4-20-1-6-2-2 1-4v-12h-1v-12l2-4 2 1v-8l4-18 7-21 9-19 12-19 11-14 12-13 4-5 7-6h2l1-3 6-5 4-5 8-7 14-11 14-10z" fill="#0F4BA2"/>
<path transform="translate(1075,840)" d="m0 0 3 3 5 11v2h2l-3-11-1-5 4 5 7 18 1 8 3 1-1 1-1 31-4 16-10 23-4 2-3 6-2 1-4 7-6 5-7 8-4 2-2 4-11 9-4 1-1 3-5 1v2h-3l-1 4-8 4-6 1-1 3-22 11-25 10-29 9-27 6-22 4-31 3-67 1-10-2-36-5v-1l12-1-32-7-15-4-1-2 11 2 25 5 12 2 26 3 14 1h54l26-2 15-2 14-3 19-3 26-7 23-8 4-2 7-2 1-2 6-1 20-10 5-3h2v-2l5-1 1-3 7-3 12-9 10-9 8-7 6-7 2-4 2-1 3-6h3l1-7 7-12 5-16 2-13v-19l-4-1 2-2-1-9-6-17-3-6z" fill="#2F98ED"/>
<path transform="translate(1016,785)" d="m0 0 5 1v3l5 1v2l6 2 10 7 20 20 5 6v2h2l1 5 3 1 9 21 4 13v5l-1 2 3 1v19h-2l1-18-15 5-9 4-6-1-2-16h-2l-2-6v-4h-2l-4-8-3-9h-2v-3h-2l-1-3-3-2v-3l-4-2-3-5-11-9-1-1v-23z" fill="#012181"/>
<path transform="translate(749,649)" d="m0 0 1 4h2v2l20-2 6 1h16l12 1 4 2 4 12v3h2v2l23-1 11-1 6-1 7-1 9-1 4-2h6l2 1v-2l4-1 1-3 1 23-2 5-3 2-10 2-31 1h-12l-5 2h-6l-5-10-3-8-1-3-4-1h-14l-19 2-20-1-3-8-3-14z" fill="#1D72C6"/>
<path transform="translate(714,454)" d="m0 0h18l12 5 17 10 8 4 4 5 1 3v8l-3 6-2 2-11 1-4 2-14-2-5-2-4 1-15 7-7-1-2-3 8-5 14-7v-3h-7l-14 4-10 4h-5l-1-1v-6l2-2 8-3 12-5 9-3-11 1-15 5-4 1v2l-3 2-4-1-1-1-1-14 6-5 12-6z" fill="#B6D5CF"/>
<path transform="translate(1019,819)" d="m0 0 4 2 6 5 3 5 2 1 1 3 3 2v3h2v3h2l3 5 3 7 1 5h2l2 10h2l2 11v5h3v2h-3l1 2v10l-1 7-3 8-3 10-5 10h-2v3h-2v3h-2l-1 4-5 4-7 8-10 10-13 10-14 9-14 8-25 11-12 4-3-1 1-5 4-1v-2l10-5 1-2 13-5 8-4h2v-2l12-6 7-5 5-3 11-9 10-10 6-8 1-3h2v-3h2l1-5 4-9h2l3-15 1-12v-13l-4-16-1-6-3-1-2-8-3-1-4-8-5-5-3-5-2-3v-8h2l5 6v-3z" fill="#2781D7"/>
<path transform="translate(860,338)" d="m0 0 2 1 3 6 5 1-1 7v16l4 13v6l-10 7-13 5-7 1h-9l-8-2-10-5-5-6-1-6 1-6-6-4-2-4v-13h-2l1-5 5 2 12 6 13 3 8-1 10-6 6-9z" fill="#B6D7CF"/>
<path transform="translate(609,934)" d="m0 0 5 3 7 10 8 8v2l4 2 10 9 16 11 16 9 15 8 16 6 10 3-2-3-10-4 3-1 30 9 30 6 24 3 17 1h24l26-1 26-3 25-5 27-8 14-5 2 1-9 5h-2v2l-4 1-1 7-26 7-26 5-24 3-15 1h-41l-23-2-26-4-26-6-27-8-21-9-19-10-12-8-12-9-12-11-11-12-6-9z" fill="#319CF1"/>
<path transform="translate(780,845)" d="m0 0h3l1 2 26 7 13 3h9l1-10 2 1 1 14-9 4-10 3-11 6-16 12-12 7-14 5h-11l-8-5-1-1v-12l4-8 9-10 10-9z" fill="#38CEFC"/>
<path transform="translate(576,334)" d="m0 0h14l10 3 8 7 6 10 7 16 1 2 1 14-7 10-4 3-6-1-10-4-8-6-6-7-8-13-2-4-5-2-10-1-1-5 1-1h17l5 2-1-3-6-4v-2l-13-1 1-4 9-7z" fill="#B7D5CF"/>
<path transform="translate(928,911)" d="m0 0 3 3-1 5-10 21-6 12-11 11-16 7-3 1h-14l-8-3-4-4-1-3v-7l4-10 20-26 4 1v2l13 2h18l6-3 3-8z" fill="#38CEFC"/>
<path transform="translate(911,818)" d="m0 0h5l6 8 2 2 1 9 2-4v40l-1 6h-1l-2-15-7-1-10 3-21 4-4 2-2 2-3-14-4-26 1-3 7-6h7v-1l19-4z" fill="#38CEFC"/>
<path transform="translate(702,753)" d="m0 0 5 1 1 4-4 1v2h-3v2l-3 2-1 3h2v2l8-1-1 5-4-1v2h-5l-1 4-14 6-13 8-16 9-15 11-3 2v-37l-2-1 10-4 19-8 13-5 15-4z" fill="#2781D7"/>
<path transform="translate(1029,559)" d="m0 0 2 1 1 4v28l-1 5-1 19-1 5-5 3-3 1-1 86 3 1h-4l-1-2v-43l-4-6-13-1-7-1v-2l-5-1-2-5v-5-2l1-4 4-6h3l3-2v3h2l1-2 4-2 4-1 1-4 8-7 2-9v-33l1-1-2-7-3-2-5-1 1-2z" fill="#1D72C6"/>
<path transform="translate(820,819)" d="m0 0h7l5 5 2 7 2-12h1v42h-1l-2-13-2 9-9 1-13-3-18-5-9-3-1-3 2-1 1-8 1 4h2v-13l4-4 5-1 18-1z" fill="#40F4FF"/>
<path transform="translate(341,520)" d="m0 0 3 4 8 16 10 16 8 11 9 12 12 13 7 8 6 4 6 7 11 9 15 11 4 5-4-2-11-8-10-8-6-3-2-2-5 1h-2l-2 7v5l-1 3h-3l-1 8-3 11-2 15v31l4 20 5 16 5 11 10 18 3 6 3 3 3 6v2l4 2 6 9 12 11 7 7v2l3 1v2h2l6 7 11 9 11 8 9 6 6 2 3 4 5 2v2l7 1 1 3 10 5-1-6 3-1 4 1 2 6 2 3-1 2 2 1v2l6 2 4 2v31l-2-2-1-8v-9l2-11-7-2-16-8-18-10-16-10-19-14-14-12-27-27-8-11-6-8-10-16-9-19-6-18-4-20-1-23 2-21 6-23 7-19 2-5-10-10-4-6-11-12-9-11-8-11-8-15v-2h-2l-5-12-2-4z" fill="#104CA3"/>
<path transform="translate(895,733)" d="m0 0 6 1v2l17 3 14 2 27 8 20 8 27 13 22 13 10 8 4 2 4 5 2 1v2l4 2 14 14 7 9 8 12 4 13 1 6-3-1-7-15-3-2-1-4-3-3v-3h-2l-1-4-4-2-7-8-9-9-4-3v-2l-5-2-6-5-5-2v-2l-5-1v-3h-3v-2l-5-1-16-8-20-9-19-7-27-8v-2l-10-2-21-5-5-3-1-5z" fill="#36C2F8"/>
<path transform="translate(783,309)" d="m0 0 12 7 13 8 11 5v2l21 3-3 7-2 8 2 1v3l4 2v3l2 1-3 2-8 1-16-4-12-7-7-3-4-5-4-2-5-10-1-4z" fill="#022281"/>
<path transform="translate(1023,716)" d="m0 0 5 1-1 5 3-1 4 15 4 1v2h2v7l4 4v4l-5 1 1 2 7 3 1 4h-4l1 4 3 1 1 7-4 1 1 5 1 4-5-1-5-7-1-5h-4l5 8 2 6 3 1-1 2-5-3v-2l-6-2-5-3-6-1-3-5 1-33 1-15 2-2 1-7z" fill="#0F49A0"/>
<path transform="translate(904,766)" d="m0 0 9 1 27 8 10 4 9 2 19 9 18 10 10 7 8 6v2l4 2 6 7-1 3-6-5v-2h-2l1 10-4-2-11-10-18-12-21-11-20-8-24-9-6-3h-5l-3-5z" fill="#37CAFB"/>
<path transform="translate(594,894)" d="m0 0 4 1 10 4 2 5 3 12 3 4 4 10 1 4h2v3h2l3 7 12 13 12 11 7 5 5 2 3 3 8 5 7 3v2l6 2 4 2 7 1 5 3v2l10 3 2 4-12-3-14-5-19-10-8-5-7-4-14-10-11-10-13-13-5-8h-2l-1-2-2 2-8-16-5-16z" fill="#2883D8"/>
<path transform="translate(1075,840)" d="m0 0 3 3 5 11v2h2l-3-11-1-5 4 5 7 18 1 8 3 1-1 1-1 31-4 16-10 23-4 2-3 6-2 1-4 7-6 5-7 8-4 2-2 4-11 9-4 1-1 3-5 1v2h-3l-1 4-8 4-6 1v2l-6 2-4-1 9-6h2v-2l6-3 11-7 12-9 3-1 1-4 14-13 5-6 2-4 2-1 3-6h3l1-7 7-12 5-16 2-13v-19l-4-1 2-2-1-9-6-17-3-6z" fill="#33B9F3"/>
<path transform="translate(768,761)" d="m0 0h11l1 5-2-3h-8l-12 3-4 2-3 3-16 6-20 7-24 10-16 8-12 7h-3l-1-1-12 6-7 5-3-1v-5l10-8 13-8 11-6 10-4 24-10 26-8 31-7z" fill="#37CCFB"/>
<path transform="translate(1207,428)" d="m0 0 9 2 3 4v10l-6 6-12 2-4 6-3 5-8 7-13 13-10 8-16 13-21 14-9 5-19 10-15 7h-5l2-3 3-1 2-3 9-4 3-3 19-10 15-9 12-8 7-4 9-7h2v-2l10-8 12-11 10-11 5-7-1-11 3-6 4-3z" fill="#2E97EC"/>
<path transform="translate(794,296)" d="m0 0 4 1 2 5 10 7 16 8 9 2 26 1 1 4h-4v3h2l2 5-7-1-2-2-6 3-6 1h-9l-13-3-16-8-14-9-7-8v-4l9-3z" fill="#1659B0"/>
<path transform="translate(1036,806)" d="m0 0h5l10 9 1 4-1 2 5 1 3 7 6 3 4 8 2 6h-3l2 12h-2l-1 2h-2-1l-1 2-2 3v3l-5 4v-2h-3l-2-6v-4h-2l-4-8 1-2 1-1-4-13-3-5-2-16z" fill="#0F4BA2"/>
<path transform="translate(732,495)" d="m0 0 5 1 14 3h7l2 13 1 18v12l-1 14-2 6h-3l-2-6-4-37-1 16v21l-1 13-2 1-1-65h-11l-13-2 3-3z" fill="#114EA5"/>
<path transform="translate(384,527)" d="m0 0h8l9 8 1 3v7l-2 3 1 7 11 13 11 12-1 4h2l4 5 3 2v2l4 2 2 3-4-2-10-9-15-15-9-11-6-5-9 1-6-3-4-5-2-4v-7l4-6 5-4z" fill="#36C7F9"/>
<path transform="translate(1033,943)" d="m0 0h4l-1 4-11 12-8 8-13 10-14 9-14 8-25 11-12 4-3-1 1-5 4-1v-2l10-5 1-2 13-5 8-4h2v-2l12-6 4-3h7l4-1v-3l6-3 9-8 10-10h3v-2z" fill="#2781D7"/>
<path transform="translate(601,986)" d="m0 0 5 2 10 6-3-3 1-3 3 3 10 5 10 6 25 11 21 8 19 6 5 3 20 5 15 3 11 3v1l-19 1-5-2-29-7-33-11-21-9-23-12-12-8-10-7z" fill="#34B9F4"/>
<path transform="translate(1243,626)" d="m0 0h2l5 14 4 22v34l-3 17-7 21-12 25-10 15-10 13-9 10-11 12-8 7-14 12-15 11-20 13-25 14-13 7-2-1 1-3 16-8 28-16 18-13 9-7 13-10 8-7 7-8 13-13 10-13 10-16 6-10 9-20 5-17 3-15v-33l-1-10-5-18z" fill="#104CA3"/>
<path transform="translate(1041,894)" d="m0 0h1v12l-4 15h-2l-1 5-4 9h-2v3h-2l-1 5-14 15-5 5-2-1 12-13h2l1-4 3-1 1-5 4-7 5-10-5 1-2 5-8 11-9 9-3-1 6-11 8-13 4-11 2-17h2l1 2h7z" fill="#37CBFB"/>
<path transform="translate(801,291)" d="m0 0 4 1 3 3 5 4 14 7 18 6 17 4 2 4v3h-3v-3h-26l-12-3-16-9-8-6-1-5 2-5z" fill="#B5D6D0"/>
<path transform="translate(1160,528)" d="m0 0 4 1 5 2 3 1v2l5 2 4 4v2l4 2 7 8v3h2l-2 4-5 3-2-2v-3l-8-2 1 4-12-3-1-4-5-3v-7l-3-1v-4l4-1z" fill="#011F7F"/>
<path transform="translate(1047,893)" d="m0 0 3 1 2 6-1 9-3 6-5 12-6 11-8 8-7 8-4 2-2 4-9 8-5 1v3l-4 2h-5l1-3 5-3 11-9 10-10 6-8 1-3h2v-3h2l1-5 4-9h2l2-10h2l1-2 2 1-2-7 1-9z" fill="#104EA5"/>
<path transform="translate(1075,840)" d="m0 0 3 3 5 11v2h2l-3-11-1-5 4 5 7 18 1 8 3 1-1 1-1 31-4 16-3 7h-1l-1-6-5 10h-2l-2 6-3 2 2-5 6-12 4-13 2-13v-19l-4-1 2-2-1-9-6-17-3-6z" fill="#2E96EB"/>
<path transform="translate(748,518)" d="m0 0 2 1 4 37 1 1v5h3v-5h1l-1 16-2 17-1 2-1 1-1 8h-1v-7l-6-1-1-1v-22l1-1 1-18v-17z" fill="#1D72C7"/>
<path transform="translate(853,328)" d="m0 0 2 2 8 1-1 8-4 4-6 10-8 6-3-1v-3l-5-2-1-7 2-9 2-2-15-2-5-2 3-1 10 2h9l9-2z" fill="#174EA6"/>
<path transform="translate(386,513)" d="m0 0 10 2 9 5 7 7 3 7-6 2-2-5h-2v2l-4-1-7-5-4-1h-10l-8 6-5 3-2-1 1-5 4-4-1-3 4-4 8-4z" fill="#011F7F"/>
<path transform="translate(733,426)" d="m0 0 3 1-24 9-19 7-16 4-10-1-16-7-13-8-4-4 5 2 12 7 6 1h13l5 2 9-3 7-1 3-1 5 1 1-2h4v-2l4 1 1-2 12-1 1-1z" fill="#C247B4"/>
<path transform="translate(602,855)" d="m0 0 1 3-2 10 1 4h3l1-4 3 1-2 27-6-1-4-2h-6l-6-2-16-7-18-8 1 8-1 1v20l-2-1v-22l1-7 4-1 12 6 27 11 1-13 5-17z" fill="#2781D7"/>
<path transform="translate(479,443)" d="m0 0 5 2 7 3h4l1-2 6 5-4 1-2 11-1 2h-2l-1 3-4-1v-3l-1 5 1 5-1 2h-2v8h2v2h2l1 8-10-4 1-17 1-6-2-6-1-14h-2z" fill="#2782D8"/>
<path transform="translate(423,581)" d="m0 0 8 6 13 12 16 12 16 11 25 15v2l-2 2-5-1-24-15-17-12-10-8-7-6-2-4-10-9v-2h-2z" fill="#309AEF"/>
<path transform="translate(211,752)" d="m0 0 4 1 1 5-3 2 1 9 8-1 1 5 7-1 3 1 4 6v2h2v4l-9-2-4-2-3 1-1 2-8-1-3-1v-2l-4-1-1-3h2l-2-7-3-1 4-2 2-7-2-4h2v-2z" fill="#0F4BA2"/>
<path transform="translate(1093,528)" d="m0 0 2 1-10 5-2 3-4 2 2 2-25 10-22 8-18 5-4-1 6-1-1-4 7-3 13-4 10-4 31-12z" fill="#2680D6"/>
<path transform="translate(782,302)" d="m0 0h5l5 6 14 9 16 8 11 3 11-1 9-3h4l5 6-1 2-7-2h-3l-4 2-6 1h-9l-13-3-16-8-14-9-7-8z" fill="#B6D7CF"/>
<path transform="translate(585,962)" d="m0 0 16 12 7 4 4 4v2l5 2 10 5 3 3 16 7 10 5 9 4 21 7 7 1v2h5l3-7 7 1-3 2-2 7h-7l-13-4-12-3-25-11-12-6-14-8-8-4h-3l-10-9-8-7-7-7z" fill="#0F4AA2"/>
<path transform="translate(834,261)" d="m0 0h13l11 4 8 6 7 8 3 5 1 7v15l-2 6h-1v-8h-2l-4-15-4-10-5-6-10-6-15-5z" fill="#B4D6D0"/>
<path transform="translate(1056,889)" d="m0 0 2 1v10l-1 7-3 8-3 10-5 10h-2v3h-2v3h-2l-1 4h-2v-2h-4l-1 3h-2v2h-2l2-4 8-9 9-19 4-10v-11l-7-1 4-3z" fill="#1B6CC0"/>
<path transform="translate(838,758)" d="m0 0 5 2 3 9h2l7 14v2l-5 1h-8l-5-4-2 2v-24z" fill="#3FF2FE"/>
<path transform="translate(556,362)" d="m0 0 11 1 5 5 3 4v6l6 8v2l4 1v2l6 2 6 4-1 3-8-4-9-1-8-6-3-6-1-1-1-10-8-4-2-3z" fill="#0F4BA2"/>
<path transform="translate(916,942)" d="m0 0h1v5l-6 8-8 8-16 7-3 1h-14l-8-3-4-4v-6l5 3 4 3h18l11-4 11-7z" fill="#32A4F4"/>
<path transform="translate(563,944)" d="m0 0 4 2 2 4 3 3 4 2v2l4 2 14 14 3 2v2l4 2 8 7 4 2v3l3 1v2l-5-2-8-5-7-4-12-11-14-14-4-6-3-5z" fill="#39D5F8"/>
<path transform="translate(663,336)" d="m0 0h7l5 3 3 5-1 5-6 7h-8l-5-4-2-4 1-6z" fill="#3FEFFE"/>
<path transform="translate(862,323)" d="m0 0 3 3 8-1 4-1 3 1 1 5v5l-7 9-8 1-4-3v-11l-2-4h-2v-3z" fill="#022080"/>
<path transform="translate(504,398)" d="m0 0h3l-1 2-1 53-4-2-13-12-8-8 3-3-4-4-1-4 2-2h5l3 3v2l4 2v3l-2 1 1 7 5 3 6 5 1-2z" fill="#0F4AA1"/>
<path transform="translate(545,874)" d="m0 0h1l1 31 2 6 1 2 1-8h1l4 14 3 8v5h3l6 12 6 8v2l-3-1v-2l-3-1-1-4h-4l-5-5-9-19-2-4-2-10z" fill="#31AEEE"/>
<path transform="translate(989,668)" d="m0 0h6l6 5v9l-4 5-9 1-5-5-1-2v-7l5-5z" fill="#3EECFE"/>
<path transform="translate(341,520)" d="m0 0 3 4 8 16 10 16 8 11 9 12 12 13 7 8 6 4 6 7 11 9 15 11 4 5-4-2-11-8-10-8-6-3-2-4-10-8-7-7-4-6-11-12-9-11-8-11-8-15v-2h-2l-5-12-2-4z" fill="#2884D9"/>
<path transform="translate(833,857)" d="m0 0h2l1 5-9 4-10 3-11 6-16 12-12 7h-8l1-3 14-6 10-7 14-10 11-5 11-2z" fill="#33ABF5"/>
<path transform="translate(1204,430)" d="m0 0h7l5 3 2 7-1 3h-2v3h-3v2l-9 1-3-2v-10z" fill="#3CE5FD"/>
<path transform="translate(384,527)" d="m0 0h8l9 8 1 3v7l-2 3-1 5h-1l-1-15-2-4-4-2h-7l-5 3-2 3v9l2 4 12 3v2l-7 1-6-3-4-5-2-4v-7l4-6 5-4z" fill="#2F99EE"/>
<path transform="translate(558,361)" d="m0 0h9l5 3 7 10 7 11 8 7 11 6 4 6-3 1-6-2-3-3-1-3-11-6v-2l-4-1-7-10v-6l-4-6-3-2-9-1z" fill="#022281"/>
<path transform="translate(1178,380)" d="m0 0h11l3 3v9l-4 3-10-1-5-2-1-6z" fill="#0F4BA3"/>
<path transform="translate(960,1019)" d="m0 0 3 1-19 7-22 6-25 5-33 4-16 1h-57v-1l54-1 26-2 15-2 14-3 19-3 26-7z" fill="#2680D5"/>
<path transform="translate(804,287)" d="m0 0h2l1 2 9 3 4 4 5 2v2l3 1 1 3 12 5 16 5-4 1-21-6-16-7-10-7-2-3-6 1v-2z" fill="#022483"/>
<path transform="translate(506,852)" d="m0 0 10 3 8 4-1-6 3-1 4 1 2 6 2 3-1 2 2 1v2l6 2 4 2v31l-2-2-1-8v-9l2-11-7-2-16-8-15-8z" fill="#1B67BD"/>
<path transform="translate(124,920)" d="m0 0 4 1 1 4-1 2h-2v3l-6 3-5-1-2 1-2 5-4 1v-2l-4-1 1-2 2 1v-5h2v-2l-3 1 1-3h3l2-4 1 2 11-3z" fill="#104CA3"/>
<path transform="translate(1085,874)" d="m0 0 4 2 1 6 1 24h2l-1 8-5 13h-1l-1-6-5 10h-2l-2 6-3 2 2-5 6-12 4-13 2-13v-19l-4-1z" fill="#2E97E9"/>
<path transform="translate(1049,828)" d="m0 0 6 5 4 9 1 4 1 11-2 3-1-6-2 6 1 3-1 4-1 3h-2l-3-12 1-1 1-7 1-4-1-7-2-3z" fill="#012080"/>
<path transform="translate(1085,920)" d="m0 0h1v10l-6 13-4 2-3 6-2 1-2 3v-4l-10 10v-3l3-3 2-4 2-1 3-6h3l1-5 5-8h2l2-6 1-4z" fill="#31AEED"/>
<path transform="translate(727,489)" d="m0 0 7 1v4h-2l-1 3-15 7-7-1-2-3 8-5z" fill="#F0F4F4"/>
<path transform="translate(556,336)" d="m0 0h1l2 12 1-1h9l3 1v2l4 2 3 2v3l-5-1h-18l-2-6-1-9z" fill="#114BA2"/>
<path transform="translate(1207,428)" d="m0 0 9 2 3 4v10l-6 6-12 2-4 6-3 5-1-4v-3l5-7-1-11 3-6 4-3zm-3 2-4 7v10l4 2 8-1v-2h3v-3h2l1-5-3-6-4-2z" fill="#2F9DEE"/>
<path transform="translate(1062,814)" d="m0 0 5 5 9 11 5 8 4 13 1 6-3-1-7-15-3-2-1-4-3-3v-3h-2v-2h2l-6-10z" fill="#33B6F3"/>
<path transform="translate(631,690)" d="m0 0 9 1 26 6v2l9 1 3 2-4 1-19-3-12-3-10-2-2-2z" fill="#35BEF9"/>
<path transform="translate(998,854)" d="m0 0 3 3 6 13 3 12v23l-6 16-7 12-9 10v-3l6-7 9-16 3-9 1-6v-17l-3-16-6-13z" fill="#B6D8D0"/>
<path transform="translate(836,781)" d="m0 0 6 4h13l4 6-1 2-1-3-8-2h-7l-5-2 1 31 1 15v22l-1 8h-3l1-1v-42l-1-35z" fill="#B6D8D0"/>
<path transform="translate(385,535)" d="m0 0 6 1 2 2v9l-4 3h-5l-4-4-1-7 3-3z" fill="#FCFDFD"/>
<path transform="translate(1067,951)" d="m0 0h2v5l-5 6-12 12h-2v2l-4 2h-4l1-4 14-13 4-1 2-4z" fill="#35C0F7"/>
<path transform="translate(709,455)" d="m0 0h11l-3 2-5 3-14 5-10 6h-4l1-4 5-4 12-6z" fill="#F5F9F8"/>
<path transform="translate(1044,805)" d="m0 0 4 2 14 14 5 6v2h2l1 5 3 1 9 21 4 13v5l-3-1v-6l-2-1-1-8-6-15-3-4-3-5-8-11-6-6v-2h-2l-7-8z" fill="#1252A9"/>
<path transform="translate(1017,715)" d="m0 0h2l-1 31-1 28h-1l-1-12v-33l-6-6v-5z" fill="#1D72C6"/>
<path transform="translate(335,475)" d="m0 0 6 2 1 4 6 2h3l1 9 2 5-1 7-3-3 1-5-4-2h-4v-2l-2-1v-3l2-4-5 1v-3l1-4-4-2z" fill="#0F49A1"/>
<path transform="translate(496,359)" d="m0 0h9l1 1v9l-1 3-9-1-4-6 3-5z" fill="#35BCF9"/>
<path transform="translate(869,283)" d="m0 0 7 1 1 7v15l-2 6h-1v-8h-2l-2-13z" fill="#FBFCFC"/>
<path transform="translate(463,721)" d="m0 0 4 1v6l-3 7h2l1 5-1 2h-6l-3-2-1-4 2-4 3-1v-4l-1-5z" fill="#1456AD"/>
<path transform="translate(390,595)" d="m0 0 4 1 8 7 5 5 15 13 14 10 4 5-4-2-11-8-10-8-6-3-2-4-10-8-7-7z" fill="#1C6CC2"/>
<path transform="translate(611,986)" d="m0 0 6 2 13 8 12 6 15 7 17 7v2l-9-3-12-5-16-7-17-10-5-3z" fill="#052B89"/>
<path transform="translate(781,1023)" d="m0 0h41l38 1v1l-15 1h-41l-23-2z" fill="#2781D7"/>
<path transform="translate(573,700)" d="m0 0 17 4 28 8 13 3-1 3-17-4-23-7-17-5z" fill="#2278CE"/>
<path transform="translate(136,902)" d="m0 0 4 1v2h2v2l3 1-1 3-5-1-2 1-1 5-6-2h-6l1-5h9v-3h2l-1-3z" fill="#0F4BA2"/>
<path transform="translate(928,845)" d="m0 0h1l2 36 2 23-1 13h-1l-1-14-1-2-1-28z" fill="#B6D8D0"/>
<path transform="translate(701,471)" d="m0 0 1 3 2 1-1 2-10 3v2l-3 2-4-1-1-1v-5l3-2z" fill="#ECF5F3"/>
<path transform="translate(566,834)" d="m0 0 2 1-10 21-6 17-2-3 1-7 4-10 9-17z" fill="#2D92E7"/>
<path transform="translate(1206,434)" d="m0 0h6l3 2v6l-4 3h-5l-3-2-1-5z" fill="#B6D8D0"/>
<path transform="translate(551,874)" d="m0 0 5 1 15 7 17 7 1 2-3 1-14-7-10-4-11-5 1 8-1 1v20l-2-1v-22l1-7z" fill="#2784D9"/>
<path transform="translate(499,356)" d="m0 0 8 1 2 8v5l-3 3-6 1-7-1-2-2v-7l4-7zm-3 3-4 5 3 6 5 2h5l1-3v-9l-1-1z" fill="#104CA3"/>
<path transform="translate(1082,875)" d="m0 0 6 2v19h-2l1-18-15 5-9 4-6-1 1-4v3l13-5 9-4z" fill="#1151A7"/>
<path transform="translate(295,634)" d="m0 0 5 1-2 5h-2l2 5 5 2v5l1 3-7-2-4-7-3-2v-2l6-4z" fill="#0F4BA2"/>
<path transform="translate(385,533)" d="m0 0h6l4 4 1 2-1 10-7 3-6-2-3-3-1-2v-7l4-4zm0 2-5 2-1 7 2 4 3 2 7-1 2-2v-9l-5-3z" fill="#40F4FF"/>
<path transform="translate(629,771)" d="m0 0h2l-2 4-16 10-12 8-9 7-2-1 12-10 7-5h2v-2l11-6 5-4z" fill="#2B8FE4"/>
<path transform="translate(409,568)" d="m0 0 4 1 10 11-1 4h2l4 5 3 2v2l4 2 2 3-4-2-10-9-8-8-4-7z" fill="#36BFF9"/>
<path transform="translate(472,423)" d="m0 0h3l-2 10h2l1 5-2 2-1 59h-1z" fill="#2781D7"/>
<path transform="translate(560,347)" d="m0 0h9l3 1v2l4 2 3 2v3l-16-2 1-5 2-1-6-1z" fill="#5B49A8"/>
<path transform="translate(663,336)" d="m0 0h7l5 3 3 5-1 5-2 2-1-11-4-1h-7l-3 3v7l2 5-4-2-2-4 1-6z" fill="#31ABEE"/>
<path transform="translate(617,848)" d="m0 0h2v6l-2 4-3 2-3 5-3-1 1-7 5-7z" fill="#2883D9"/>
<path transform="translate(384,527)" d="m0 0h8l9 8 1 3v7l-3 3v-10l-3-5-6-3h-7l-6 4-3 5-1 6h-1v-7l4-6 5-4z" fill="#257DD3"/>
<path transform="translate(1191,458)" d="m0 0 3 1-2 5-13 13-3-1 2-4 9-9z" fill="#31A6F1"/>
<path transform="translate(952,366)" d="m0 0 5 1 2 2v6l-3 2-5-1-2-2v-5z" fill="#33B3F2"/>
<path transform="translate(118,891)" d="m0 0 4 1 1 2-1 10-4-2-1-2-5-2v-4l5-1z" fill="#104CA3"/>
<path transform="translate(287,648)" d="m0 0h2l-1 3 2 5-2 5h-3l-5-3-1-3 1-5h5z" fill="#104CA3"/>
<path transform="translate(667,483)" d="m0 0 6 2 1 1v7l-4 1-6-3 1-7z" fill="#36C1F8"/>
<path transform="translate(717,472)" d="m0 0h8l-2 2-18 6-5-1-5 3h-2v-2l12-5z" fill="#CA48A8"/>
<path transform="translate(1195,564)" d="m0 0h6l1 1v7l-3 2-5-1-2-3v-5z" fill="#37C6F9"/>
<path transform="translate(1207,428)" d="m0 0 9 2 3 4v10l-6 6-11 1 2-3h8v-2h3v-3h2l-1-7-2-4-10-2z" fill="#2E95E9"/>
<path transform="translate(271,694)" d="m0 0 5 1 8-1 2 4-3 1-2-1v2h-2l2 5h-3v-2l-5-1z" fill="#104CA3"/>
<path transform="translate(1037,651)" d="m0 0 5 2 1 6h2l2 5v4h2l3 6-4 1-8-15z" fill="#011F7F"/>
<path transform="translate(502,458)" d="m0 0h2v17l-3-1-2-2v-3h-2l1-7z" fill="#2882D8"/>
<path transform="translate(876,287)" d="m0 0 2 3 1 4v14l-1 10-5-1v-13h1l1 6 1-4z" fill="#BE91BB"/>
<path transform="translate(595,708)" d="m0 0 8 2 1 3-3 3-8 2-6-2 2-3h6z" fill="#0F4AA1"/>
<path transform="translate(1085,874)" d="m0 0 4 2 1 6v17l-2 11-3 3 2-17v-19l-4-1z" fill="#2780D6"/>
<path transform="translate(341,520)" d="m0 0 3 4 8 16 10 16 1 2-3 1-8-14-2-6h-2l-5-12-2-4z" fill="#267FD5"/>
<path transform="translate(654,724)" d="m0 0h6l2 1v6l-3 3-6-1v-8z" fill="#3DE7FD"/>
<path transform="translate(433,548)" d="m0 0 2 1-1 6 1-1 3 1-2 4-5 6-4-2 3-9h2z" fill="#032785"/>
<path transform="translate(815,300)" d="m0 0 5 1 13 5 14 5 10 3-4 1-21-6-16-7z" fill="#175DB4"/>
<path transform="translate(525,852)" d="m0 0 5 1 2 6 2 3-1 3-6-2-4-3v-4-3z" fill="#0F4AA2"/>
<path transform="translate(1181,382)" d="m0 0 5 1 1 1v7l-5 2-4-3v-5z" fill="#35BFF6"/>
<path transform="translate(309,441)" d="m0 0 3 1-1 5 1 5-5 3h-2l-1-9z" fill="#0F4BA2"/>
<path transform="translate(1201,459)" d="m0 0 7 2 4 1 1 3-4 1h-11l-2-4z" fill="#104CA3"/>
<path transform="translate(701,1013)" d="m0 0 7 1-3 2-2 7h-7l-9-3 1-3 5 1v2h5z" fill="#104CA3"/>
<path transform="translate(1028,934)" d="m0 0 1 4h-2l-1 5-14 15-5 5-2-1 12-13h2l1-4 3-1 1-5z" fill="#32B0F1"/>
<path transform="translate(1071,836)" d="m0 0 4 4 5 11 5 14 1 9-3-1v-6l-2-1-1-8-6-15-3-4z" fill="#104CA3"/>
<path transform="translate(1017,777)" d="m0 0 12 7 9 7 4 2 4 5 2 1v2l-4-2-4-4-7-4-13-10-3-2z" fill="#2D93E8"/>
<path transform="translate(334,501)" d="m0 0 2 3 2 5 3 2-1 2h2l4 12-1 3-3-6v-2h-2v-2h-2l-4-11z" fill="#104CA3"/>
<path transform="translate(1e3 474)" d="m0 0h6v7l-2 2h-6l-1-1v-7z" fill="#30A7ED"/>
<path transform="translate(877,286)" d="m0 0 3 3 2 11v9l1 5-5 2v-22z" fill="#042180"/>
<path transform="translate(832,260)" d="m0 0h14v1l-9 1 3 2-10 1-8 7-3-1 7-8z" fill="#3097E8"/>
<path transform="translate(1015,559)" d="m0 0 4 1-1 2-19 5-7 1 1-3z" fill="#329FF4"/>
<path transform="translate(835,312)" d="m0 0 7 1 14 3 1 2h-17l-5-3z" fill="#fff"/>
<path transform="translate(705,198)" d="m0 0 6 1v6l-3 2-5-1-1-1v-5z" fill="#30A3EE"/>
<path transform="translate(703,1028)" d="m0 0 11 2 25 5-1 2-11-1-23-6z" fill="#2C91E6"/>
<path transform="translate(391,555)" d="m0 0 5 2 5 5v3l-7-2-1-3-5 2v-5z" fill="#052B89"/>
<path transform="translate(385,535)" d="m0 0 6 1 2 2v9l-4 3h-5l-1-2 7-1v-9h-7l-2 2-2 4 1-7z" fill="#B9D9D2"/>
<path transform="translate(1218,432)" d="m0 0h2l1 4v8l-3 5-3 3-13 1-2 1 1-3 12-2 5-5z" fill="#114FA6"/>
<path transform="translate(1041,976)" d="m0 0 1 2-15 11-11 7-6 3-3-1 6-2v-2l5-1 1-3 7-3 12-9z" fill="#2D91E7"/>
<path transform="translate(171,862)" d="m0 0 1 4-3 1-3-1v2h-2v6l-4 1-2-8 4-3h9z" fill="#104CA3"/>
<path transform="translate(889,967)" d="m0 0 3 1-8 3h-14l-6-2v-1z" fill="#3ADBFD"/>
<path transform="translate(1076,944)" d="m0 0 1 4-11 14-13 13-3-1 8-7 4-5 5-5 4-6 2-1z" fill="#175EB4"/>
<path transform="translate(1036,859)" d="m0 0 2 3 4 13 1 6v13l-2-4-3-19-2-7z" fill="#35B9F8"/>
<path transform="translate(1048,876)" d="m0 0 3 1 1 5-3 3-1 4-4 1v-8l2-1z" fill="#1C71C5"/>
<path transform="translate(213,603)" d="m0 0 4 2 1 2-4 4h-2l-1 5-2-1-1-6 2-5z" fill="#104CA3"/>
<path transform="translate(383,529)" d="m0 0h7l6 3 3 3 1 3-1 15h-1l-1-15-2-4-4-2h-10z" fill="#319EF3"/>
<path transform="translate(1053,887)" d="m0 0 3 1-10 5h-2v10l1 7-4 1 1-17 2-3z" fill="#309AEF"/>
<path transform="translate(1075,840)" d="m0 0 3 3 7 16 4 10v2h-2l-1 3-4-15-6-15z" fill="#267FD5"/>
<path transform="translate(473)" d="m0 0 5 1 21 1-2 2-9 1h-6l-7-2-4-1z" fill="#104CA3"/>
<path transform="translate(708,651)" d="m0 0h7l1 1v5l-1 1h-6l-2-1v-5z" fill="#319FF0"/>
<path transform="translate(1205,427)" d="m0 0 4 1-8 4-3 6 1 11-4-3v-10l7-8z" fill="#104CA3"/>
<path transform="translate(985,944)" d="m0 0v3l-10 9-10 7-7 4-2-1 15-10 10-9z" fill="#B6D8D0"/>
<path transform="translate(313,652)" d="m0 0 2 1v7h-7l-3 1-1-6 9-1z" fill="#104CA3"/>
<path transform="translate(413,615)" d="m0 0 5 2 8 7 10 7 4 5-4-2-11-8-11-9z" fill="#247CD1"/>
<path transform="translate(696,485)" d="m0 0h10l1 3-6 1-3-1v3 2h-5v-6z" fill="#FBFCFC"/>
<path transform="translate(762,471)" d="m0 0 6 1 5 6v7l-2-1v-2h-2l-1-5h-2z" fill="#F3F8F7"/>
<path transform="translate(914,1032)" d="m0 0 4 1-4 2-17 3-8-1v-1z" fill="#2175CB"/>
<path transform="translate(1091,886)" d="m0 0 2 2v18h-2l-1 2v-17z" fill="#37C7FA"/>
<path transform="translate(496,359)" d="m0 0h9l1 1v9l-1 3-9-1v-1l8-2 1-7h-7l-2 1-1 7-3-4 3-5z" fill="#257ED4"/>
<path transform="translate(939,561)" d="m0 0 3 1 1 4-3 4-5-1-1-4h2l1-3z" fill="#2882D8"/>
<path transform="translate(506,852)" d="m0 0 10 3 7 4v2h2v2l-6-2-13-7z" fill="#1860B6"/>
<path transform="translate(1014,815)" d="m0 0 4 2 6 7-1 3-6-5v-2h-2v8h-1z" fill="#319CF1"/>
<path transform="translate(1193,416)" d="m0 0h2v5l-3 4h-2l-1 2-3-4 5-6z" fill="#104CA3"/>
<path transform="translate(464,199)" d="m0 0 3 1-3 4-1 7-3 1-3-3 2-3 2-4z" fill="#0F49A0"/>
<path transform="translate(1148,771)" d="m0 0 5 1v5l-2 2h-4l-1-7z" fill="#1355AB"/>
<path transform="translate(631,690)" d="m0 0 9 1 3 2-2 1 1 2-9-1-2-2z" fill="#329FF4"/>
<path transform="translate(401,606)" d="m0 0 7 5-1 2-5 1h-2l-1 2h-2l1-5z" fill="#0F4AA1"/>
<path transform="translate(555,856)" d="m0 0h1l-1 8-3 9-2-3 1-7 2-5z" fill="#2F98ED"/>
<path transform="translate(554,694)" d="m0 0 6 1 12 4 1 3-13-3-6-2z" fill="#1862B8"/>
<path transform="translate(1206,435)" d="m0 0h5l1 1v5l-1 1h-5l-2-4z" fill="#fff"/>
<path transform="translate(592,321)" d="m0 0 4 1 4 4-3 1-14-2 4-2z" fill="#104CA3"/>
<path transform="translate(632 1e3)" d="m0 0 5 2 20 9-3 1-15-6-7-4z" fill="#298ADF"/>
<path transform="translate(196,334)" d="m0 0 3 1-2 5-8 3-1-1v-6l4 1h4z" fill="#104CA3"/>
<path transform="translate(693,779)" d="m0 0m-3 1 2 1v2l-17 8-2-1 11-7 6-1z" fill="#329FF4"/>
<path transform="translate(882,519)" d="m0 0 1 4-6 10-2-3 4-8z" fill="#C543B0"/>
<path transform="translate(680,1021)" d="m0 0 9 2 13 4v1l-9-1-12-3z" fill="#2C91E6"/>
<path transform="translate(1036,905)" d="m0 0 2 1-1 8-2 5-2-3 1-9z" fill="#40F4FF"/>
<path transform="translate(556,916)" d="m0 0 3 4 3 10-1 2h-2l-4-14z" fill="#0D449E"/>
<path transform="translate(1084,833)" d="m0 0 2 1 1 4v9l-2 1-4-8 1-2 2 2z" fill="#0E48A0"/>
<path transform="translate(801,355)" d="m0 0h2l1 2-1 11-4-5 1-6z" fill="#C248B5"/>
<path transform="translate(511,159)" d="m0 0h5l-1 5-4 1-6 3 2-4 2-2v-2z" fill="#104CA3"/>
<path transform="translate(405,552)" d="m0 0h6l-1 6-7 1v-2h2z" fill="#01207F"/>
<path transform="translate(1182,468)" d="m0 0h3l-1 4-5 5-3-1 2-4z" fill="#34B9F6"/>
<path transform="translate(700,478)" d="m0 0 5 1-3 3-10 4 1-4z" fill="#2882D8"/>
<path transform="translate(1e3 474)" d="m0 0h5l-1 5-4 2-2-2v-4z" fill="#3EECFE"/>
<path transform="translate(1017,949)" d="m0 0h2l-2 4-10 10-2-1z" fill="#31AAED"/>
<path transform="translate(334,501)" d="m0 0 2 3 5 13-1 3v-2h-2l-4-11z" fill="#1A66BB"/>
<path transform="translate(879,316)" d="m0 0h5l1 1v7l-5-1v-3l1-3z" fill="#B6D8D0"/>
<path transform="translate(656,1009)" d="m0 0 13 5 5 2v2l-9-3-9-4z" fill="#052D8A"/>
<path transform="translate(1082,919)" d="m0 0 2 4-4 8h-2l-2 6-3 2 2-5 6-12z" fill="#247ED3"/>
<path transform="translate(1081,859)" d="m0 0h2l3 10v5l-3-1v-6l-2-1z" fill="#0F4AA1"/>
<path transform="translate(1087,850)" d="m0 0 2 1 6 14-1 6-2-4-5-15z" fill="#104CA3"/>
<path transform="translate(1202,430)" d="m0 0h2l-2 5-3 9-2-4 2-7z" fill="#2B8EE3"/>
<path transform="translate(873,304)" d="m0 0h1l1 7 2-1 1 8-5-1z" fill="#B6D8D0"/>
<path transform="translate(361,502)" d="m0 0h2l-1 4-1 2-6 2-1 2-2-2 2-3 6-3z" fill="#104CA3"/>
<path transform="translate(1034,789)" d="m0 0 8 4 4 5 2 1v2l-4-2-4-4-5-3z" fill="#2887DD"/>
<path transform="translate(821,360)" d="m0 0h5v2h13l-1 2h-13l-4-2z" fill="#F6FAF9"/>
<path transform="translate(435,554)" d="m0 0 3 1-2 4-5 6-2-1 4-8h2z" fill="#011F7F"/>
<path transform="translate(341,520)" d="m0 0 3 4 6 11-2 4-5-12-2-4z" fill="#2173C9"/>
<path transform="translate(991,973)" d="m0 0h8v2l-6 3h-5v-3z" fill="#1E73C7"/>
<path transform="translate(1057,813)" d="m0 0 4 2 4 3 3 5-1 2-5-5-5-6z" fill="#3EEFFE"/>
<path transform="translate(422,584)" d="m0 0h2l4 5 3 2v2l4 2 2 3-4-2-10-9z" fill="#34B9F6"/>
<path transform="translate(904,408)" d="m0 0 4 2 8 7 2 3-1 3-7-9-6-4z" fill="#C642AE"/>
<path transform="translate(794,296)" d="m0 0 4 1 2 5 2 3-4-2-1-3-6 1-2-2z" fill="#2882D8"/>
<path transform="translate(548,904)" d="m0 0 3 1v8l-2 1-2-4v-5z" fill="#39D1FB"/>
<path transform="translate(409,568)" d="m0 0 4 1 4 5v3l-4-2-4-5z" fill="#319CF1"/>
<path transform="translate(488,13)" d="m0 0 5 1-1 5h-6l1-5z" fill="#104CA3"/>
<path transform="translate(1e3 963)" d="m0 0 3 1-8 7-4 1 1-3z" fill="#33B2F2"/>
<path transform="translate(602,789)" d="m0 0h2v2l-12 9-2-1z" fill="#2D92E8"/>
<path transform="translate(433,313)" d="m0 0h3v5l-4 2-1-1v-5z" fill="#2786DB"/>
<path transform="translate(585,962)" d="m0 0 6 5 5 7-4-2-8-8z" fill="#0B3F98"/>
<path transform="translate(1040,879)" d="m0 0h2l1 2v13l-2-4-1-8z" fill="#36C3FA"/>
<path transform="translate(496,361)" d="m0 0 2 1v3l1 4 3 1h-7v-8z" fill="#319DF3"/>
<path transform="translate(658,343)" d="m0 0h1l2 7 1 4-4-2-2-4v-4z" fill="#34BBF4"/>
<path transform="translate(1019,990)" d="m0 0 2 1-5 5-6 3-3-1 6-2v-2l5-1z" fill="#2681D6"/>
<path transform="translate(902,952)" d="m0 0 3 1-6 5-4-1 4-4z" fill="#40F4FF"/>
<path transform="translate(342,468)" d="m0 0 2 2-2 5-5 1 2-7 2 1z" fill="#042987"/>
<path transform="translate(979,1010)" d="m0 0 2 1v2l-12 5-3-1 5-3 8-2z" fill="#1C6AC0"/>
<path transform="translate(1042,900)" d="m0 0 2 3 1 7-4 1z" fill="#2076CB"/>
<path transform="translate(745,890)" d="m0 0 6 2-1 4-4-1z" fill="#32A6F5"/>
<path transform="translate(698,487)" d="m0 0 8 1v2l-5 2-5-1z" fill="#B6D8D0"/>
</svg>
