<?xml version="1.0" standalone="no"?>
<!DOCTYPE svg PUBLIC "-//W3C//DTD SVG 20010904//EN"
 "http://www.w3.org/TR/2001/REC-SVG-20010904/DTD/svg10.dtd">
<svg version="1.0" xmlns="http://www.w3.org/2000/svg"
 width="2034.000000pt" height="2184.000000pt" viewBox="0 0 2034.000000 2184.000000"
 preserveAspectRatio="xMidYMid meet">

<g transform="translate(0.000000,2184.000000) scale(0.100000,-0.100000)"
fill="#000000" stroke="none">
<path d="M5100 21833 c-199 -19 -359 -65 -535 -153 -343 -171 -609 -482 -729
-855 -20 -60 -44 -117 -54 -129 -78 -86 -198 -303 -240 -436 -89 -276 -95
-582 -17 -855 26 -92 122 -305 137 -305 4 0 8 -6 8 -14 0 -27 127 -192 220
-286 54 -54 137 -123 190 -159 95 -63 190 -116 190 -105 0 3 7 -1 14 -9 28
-28 246 -97 370 -117 264 -43 518 -16 761 83 55 22 102 43 105 46 3 3 37 23
75 43 39 20 69 42 67 48 -1 6 1 9 6 6 28 -17 244 178 343 310 79 105 128 190
179 309 22 52 50 98 81 130 419 447 518 1109 247 1650 -107 212 -301 431 -496
560 -271 178 -619 268 -922 238z m391 -82 c406 -81 754 -339 954 -706 56 -101
98 -214 133 -355 23 -94 26 -125 26 -295 1 -147 -3 -209 -17 -275 -39 -180
-114 -364 -203 -495 -60 -88 -105 -147 -110 -142 -2 2 3 48 11 103 19 129 19
336 -1 455 -23 139 -87 322 -155 445 -62 110 -143 224 -160 224 -6 0 -8 4 -5
8 7 13 -162 174 -254 242 -141 104 -313 181 -511 230 -124 31 -400 39 -540 15
-57 -9 -131 -25 -164 -36 -33 -10 -76 -24 -95 -30 -52 -17 -253 -116 -276
-136 -10 -10 -31 -24 -46 -32 -15 -8 -25 -19 -21 -24 3 -6 2 -7 -4 -4 -9 6
-86 -52 -127 -95 -27 -29 -29 -17 -7 41 187 474 628 817 1133 881 105 13 327
3 439 -19z"/>
<path d="M11550 16733 c-445 -48 -838 -335 -1054 -769 -87 -175 -110 -253
-217 -744 -34 -157 -76 -350 -94 -430 -22 -100 -29 -147 -21 -151 6 -3 36 -11
66 -17 52 -11 1251 -275 1644 -362 99 -22 180 -39 181 -38 4 5 166 313 208
395 23 45 43 80 44 79 2 -2 -8 -101 -21 -222 -14 -120 -26 -237 -28 -259 l-3
-39 149 -33 c82 -19 153 -30 157 -26 16 19 309 958 325 1043 24 130 24 401 1
527 -105 570 -499 959 -1052 1038 -94 14 -204 17 -285 8z m-714 -1024 l7 -51
41 5 c23 3 104 15 181 27 171 26 365 37 495 29 222 -15 413 -103 658 -301 48
-39 92 -75 99 -80 7 -6 28 13 65 61 29 39 57 70 62 71 17 0 -1 -250 -24 -330
-82 -293 -312 -525 -605 -611 -91 -27 -290 -37 -389 -19 -380 67 -669 372
-717 759 -21 162 10 342 83 487 19 40 23 43 30 25 4 -12 10 -44 14 -72z"/>
<path d="M18022 16119 c-131 -22 -316 -105 -429 -192 -118 -91 -224 -220 -290
-352 -31 -62 -73 -175 -73 -198 0 -6 -18 -39 -41 -72 -49 -74 -82 -135 -72
-135 5 0 3 -4 -3 -8 -33 -21 -79 -158 -100 -297 -43 -278 46 -570 239 -784
134 -148 313 -253 507 -297 102 -23 130 -26 250 -21 161 6 253 28 386 92 99
48 189 111 246 173 21 23 44 45 51 49 28 17 109 136 153 225 29 59 66 114 99
149 107 112 191 268 237 437 29 107 31 342 4 457 -93 398 -399 695 -794 771
-81 15 -285 17 -370 3z m438 -79 c151 -44 302 -134 413 -247 89 -90 130 -149
183 -259 73 -151 88 -222 88 -409 -1 -145 -3 -168 -28 -250 -15 -49 -42 -121
-61 -160 -32 -67 -113 -190 -121 -183 -1 2 2 50 8 106 18 170 -12 338 -88 501
-54 116 -114 200 -202 286 -257 248 -592 331 -959 236 -101 -26 -265 -116
-345 -190 -34 -30 -35 -18 -4 52 116 262 379 472 666 533 101 21 354 12 450
-16z"/>
<path d="M3120 13380 c-324 -45 -603 -183 -831 -410 -170 -169 -278 -344 -353
-570 -48 -145 -68 -277 -69 -445 -3 -691 485 -1278 1173 -1411 140 -27 400
-25 537 4 571 122 998 544 1125 1112 20 90 23 132 23 295 0 162 -3 205 -23
294 -129 574 -554 996 -1122 1112 -110 22 -360 33 -460 19z m335 -60 c690 -80
1215 -669 1215 -1365 0 -218 -43 -403 -140 -602 -194 -398 -566 -675 -1010
-754 -120 -21 -364 -16 -489 10 -265 56 -486 171 -677 354 -196 186 -317 392
-386 657 -27 101 -31 137 -35 290 -4 132 -1 197 11 265 77 447 343 807 743
1009 234 118 503 166 768 136z"/>
<path d="M9620 9251 c-32 -60 -44 -128 -70 -386 l-27 -280 27 -50 c35 -63 54
-153 45 -214 -14 -98 -75 -194 -156 -246 -41 -27 -33 23 -69 -425 -36 -446
-68 -1017 -90 -1595 -11 -293 -27 -420 -76 -605 -37 -142 -69 -220 -115 -275
-75 -91 -85 -136 -48 -219 32 -74 9 -155 -73 -259 -26 -32 -37 -137 -20 -187
9 -24 5 -55 -19 -162 -17 -73 -68 -302 -114 -508 -46 -206 -127 -566 -180
-800 -195 -865 -235 -1045 -235 -1055 0 -6 39 -18 88 -27 557 -104 905 -168
907 -166 1 2 140 489 309 1083 170 594 326 1125 348 1180 63 158 181 394 233
465 59 78 67 125 37 194 l-21 47 73 247 c154 514 669 2242 775 2598 61 203
111 376 111 384 0 7 3 11 6 7 4 -3 42 -671 85 -1484 l79 -1478 34 -130 c49
-184 54 -239 26 -301 -21 -45 -22 -53 -11 -109 7 -33 26 -93 43 -134 l31 -73
-12 -257 c-6 -141 -29 -670 -51 -1176 -22 -506 -45 -1014 -50 -1130 -5 -115
-10 -226 -10 -245 l0 -36 138 -23 c301 -49 825 -131 827 -129 1 2 41 433 89
958 48 525 95 1025 103 1110 8 85 31 335 52 554 l36 399 -22 68 c-48 141 -43
217 18 306 21 32 42 73 45 90 9 49 -13 124 -60 200 l-42 68 18 140 c42 336
156 1052 252 1585 94 527 132 804 157 1170 15 216 15 776 0 960 -13 156 -36
348 -43 355 -2 2 -276 0 -608 -5 -1131 -18 -2476 -10 -2701 16 -52 6 -58 4
-69 -15z"/>
<path d="M18756 2237 c3 -10 9 -15 12 -12 3 3 0 11 -7 18 -10 9 -11 8 -5 -6z"/>
<path d="M19005 1370 c-3 -5 -1 -10 4 -10 6 0 11 5 11 10 0 6 -2 10 -4 10 -3
0 -8 -4 -11 -10z"/>
<path d="M8180 846 c0 -3 -22 -122 -50 -264 -27 -143 -50 -265 -50 -273 0 -10
49 -23 178 -48 97 -18 242 -46 322 -62 80 -15 274 -53 433 -84 234 -46 302
-55 370 -53 l82 3 3 72 c6 151 -48 283 -163 399 -123 124 -132 126 -851 264
-275 53 -274 53 -274 46z"/>
<path d="M11568 593 l-58 -4 0 -264 0 -265 705 0 705 0 0 25 c0 50 -23 132
-57 203 -43 91 -141 194 -228 239 -111 58 -140 61 -595 66 -228 3 -441 3 -472
0z"/>
</g>
</svg>
