<svg width="256" height="80" viewBox="0 0 256 80" fill="none" xmlns="http://www.w3.org/2000/svg">
<path d="M26 20.5H36V23H28.75V27H35.75V29.5H28.75V33.5H36V36H26V20.5Z" fill="#00EAA0"/>
<path d="M45.25 20.5H48V33.25H54.5V35.75H45.25V20.5Z" fill="#00EAA0"/>
<path d="M26 44.75H28.25L35.5 54.5V44.75H38.25V60H36L28.75 50V60H26V44.75Z" fill="#00EAA0"/>
<path d="M48.75 44.75H52.25L57.5 60H54.5L53.5 56.75H47.5L46.5 60H43.5L48.75 44.75ZM52.5 54L50.25 47.5L48 54H52.5Z" fill="#00EAA0"/>
<path d="M40 77C19.5 77 3 60.5 3 40C3 19.5 19.5 3 40 3C60.5 3 77 19.75 77 40C77 60.5 60.5 77 40 77ZM40 6C21.25 6 6 21.25 6 40C6 58.75 21.25 74 40 74C58.75 74 74 58.75 74 40C74 21.25 58.75 6 40 6Z" fill="#00EAA0"/>
<path d="M94.4 21.3999H119.4V27.3999H101.4V36.9999H118.6V42.9999H101.4V52.7999H119.6V58.7999H94.4V21.3999Z" fill="white"/>
<path d="M131.6 21.3999H138.4V52.9999H154.6V58.9999H131.6V21.3999Z" fill="white"/>
<path d="M166.6 21.3999H172L190 45.5999V21.3999H196.8V58.9999H191.4L173.4 34.3999V58.9999H166.6V21.3999Z" fill="white"/>
<path d="M221.8 21.3999H230.8L243.8 58.9999H236.4L233.8 50.9999H219.2L216.4 58.9999H208.8L221.8 21.3999ZM231.6 44.7999L226.2 28.9999L220.8 44.7999H231.6Z" fill="white"/>
</svg>
